<?xml version="1.0" encoding="iso-8859-1"?>
<!-- Uploaded to: SVG Repo, www.svgrepo.com, Generator: SVG Repo Mixer Tools -->
<svg fill="#000000" height="800px" width="800px" version="1.1" id="Layer_1" xmlns="http://www.w3.org/2000/svg" xmlns:xlink="http://www.w3.org/1999/xlink" 
	 viewBox="0 0 512 512" xml:space="preserve">
<g>
	<g>
		<g>
			<path d="M196.791,384.287c1.397-5.216,0.648-10.654-2.109-15.315l-6.196-10.473c-5.638-9.533-18.136-12.834-27.856-7.354
				l-8.008,4.512c-6.527-5.262-13.922-9.442-21.82-12.334v-8.73c0-11.127-9.187-20.179-20.478-20.179H97.931
				c-11.292,0-20.478,9.053-20.478,20.179v8.73c-7.899,2.891-15.293,7.071-21.82,12.334l-8.008-4.512
				c-9.72-5.477-22.218-2.178-27.855,7.353l-6.197,10.475c-2.756,4.66-3.505,10.098-2.108,15.314
				c1.412,5.271,4.834,9.662,9.635,12.368l7.795,4.391c-0.675,4.014-1.015,8.084-1.015,12.161c0,4.077,0.341,8.146,1.015,12.161
				l-7.796,4.391c-4.801,2.706-8.222,7.097-9.634,12.368c-1.397,5.216-0.649,10.654,2.108,15.315l6.197,10.473
				c5.637,9.533,18.135,12.833,27.856,7.354l8.008-4.512c6.526,5.261,13.922,9.442,21.82,12.335v8.729
				c0,11.127,9.187,20.179,20.478,20.179h12.392c11.292,0,20.478-9.053,20.478-20.179v-8.729c7.898-2.892,15.294-7.073,21.82-12.335
				l8.008,4.512c9.722,5.478,22.216,2.178,27.856-7.353l6.197-10.475c2.756-4.66,3.505-10.098,2.108-15.314
				c-1.412-5.271-4.833-9.662-9.633-12.368l-7.795-4.391c0.675-4.014,1.015-8.085,1.015-12.161s-0.341-8.145-1.015-12.161
				l7.795-4.391C191.957,393.949,195.379,389.558,196.791,384.287z M181.172,380.106c-0.277,1.036-0.971,1.91-1.953,2.464
				l-12.963,7.303c-3.191,1.798-4.775,5.516-3.86,9.062c1.202,4.659,1.811,9.461,1.811,14.273s-0.609,9.615-1.811,14.273
				c-0.915,3.546,0.669,7.264,3.86,9.062l12.963,7.303c0.982,0.554,1.676,1.428,1.953,2.464c0.187,0.694,0.267,1.76-0.409,2.897
				l-6.197,10.475c-1.175,1.985-3.926,2.672-6.004,1.5l-12.985-7.317c-3.091-1.741-6.956-1.263-9.531,1.177
				c-7.135,6.765-15.946,11.734-25.484,14.367c-3.504,0.968-5.932,4.156-5.932,7.792v14.619c0,2.212-1.933,4.011-4.309,4.011H97.928
				c-2.377,0-4.309-1.799-4.309-4.011v-14.619c0-3.636-2.427-6.824-5.932-7.792c-9.536-2.633-18.349-7.602-25.484-14.367
				c-1.54-1.462-3.542-2.218-5.564-2.218c-1.358,0-2.725,0.342-3.967,1.041l-12.985,7.317c-2.079,1.171-4.829,0.485-6.004-1.502
				l-6.196-10.473c-0.673-1.137-0.592-2.203-0.406-2.898c0.277-1.036,0.971-1.91,1.953-2.464l12.964-7.303
				c3.192-1.798,4.775-5.517,3.86-9.063c-1.202-4.655-1.811-9.457-1.811-14.272c0-4.815,0.609-9.617,1.811-14.272
				c0.915-3.546-0.668-7.265-3.86-9.063l-12.963-7.303c-0.982-0.554-1.676-1.428-1.953-2.464c-0.186-0.694-0.266-1.76,0.406-2.897
				l6.197-10.475c1.175-1.985,3.925-2.671,6.004-1.5l12.985,7.317c3.092,1.743,6.957,1.264,9.531-1.177
				c7.136-6.765,15.947-11.734,25.484-14.366c3.505-0.967,5.933-4.156,5.933-7.792v-14.619c0-2.212,1.933-4.011,4.309-4.011h12.393
				c2.377,0,4.309,1.799,4.309,4.011v14.619c0,3.636,2.427,6.825,5.933,7.792c9.535,2.632,18.347,7.601,25.482,14.366
				c2.575,2.443,6.439,2.919,9.531,1.177l12.985-7.317c2.08-1.171,4.83-0.485,6.004,1.502l6.197,10.473
				C181.438,378.344,181.357,379.41,181.172,380.106z"/>
			<path d="M279.047,120.818c-3.697,2.503-4.664,7.529-2.16,11.226c7.552,11.152,11.543,24.197,11.543,37.724
				c0,37.147-30.221,67.368-67.366,67.368s-67.366-30.221-67.366-67.368c0-13.398,3.921-26.338,11.339-37.421
				c12.551-18.751,33.496-29.947,56.026-29.947c13.076,0,25.752,3.749,36.661,10.839c3.742,2.434,8.751,1.371,11.183-2.371
				c2.434-3.745,1.371-8.75-2.372-11.184c-13.536-8.801-29.26-13.452-45.472-13.452c-27.937,0-53.903,13.878-69.463,37.122
				c-9.206,13.753-14.072,29.803-14.072,46.415c0,46.062,37.473,83.537,83.535,83.537s83.535-37.475,83.535-83.537
				c0-16.773-4.953-32.951-14.324-46.789C287.771,119.282,282.744,118.315,279.047,120.818z"/>
			<path d="M136.574,405.122c-4.465,0-8.084,3.618-8.084,8.084c0,13.434-10.929,24.364-24.362,24.364s-24.363-10.93-24.363-24.364
				s10.929-24.364,24.363-24.364c4.077,0,8.107,1.024,11.655,2.962c3.918,2.142,8.83,0.698,10.97-3.22
				c2.14-3.919,0.697-8.829-3.221-10.97c-5.919-3.233-12.629-4.941-19.404-4.941c-22.348,0-40.53,18.182-40.53,40.532
				c0,22.35,18.182,40.532,40.53,40.532c22.348,0,40.53-18.182,40.53-40.532C144.658,408.741,141.039,405.122,136.574,405.122z"/>
			<path d="M322.202,274.833c6.858,3.959,14.845,5.012,22.493,2.962c7.648-2.049,14.04-6.955,17.998-13.811l10.779-18.669
				c3.958-6.857,5.01-14.845,2.961-22.494c-2.05-7.647-6.955-14.039-13.811-17.998l-17.389-10.039
				c1.646-8.21,2.478-16.6,2.478-25.018c0-8.418-0.832-16.808-2.478-25.018l17.389-10.04c6.858-3.959,11.762-10.35,13.811-17.998
				c2.049-7.649,0.998-15.637-2.961-22.493l-10.778-18.669c-3.959-6.857-10.351-11.762-17.999-13.811
				c-7.649-2.049-15.636-0.998-22.492,2.962l-17.411,10.052c-12.64-11.138-27.425-19.687-43.309-25.043V29.642
				C261.483,13.298,248.186,0,231.842,0h-21.557c-16.344,0-29.641,13.298-29.641,29.642v20.072
				c-15.884,5.355-30.669,13.905-43.309,25.043l-17.41-10.052c-6.857-3.958-14.844-5.01-22.494-2.962
				c-7.648,2.049-14.04,6.955-17.999,13.811L68.654,94.222c-8.172,14.155-3.304,32.32,10.85,40.491l17.389,10.04
				c-1.646,8.211-2.478,16.601-2.478,25.018c0,8.417,0.832,16.807,2.478,25.018l-17.389,10.039
				C65.35,213,60.482,231.163,68.654,245.319l10.779,18.669c3.959,6.857,10.351,11.762,17.999,13.811
				c7.648,2.048,15.635,0.997,22.492-2.962l17.411-10.052c12.641,11.138,27.425,19.687,43.309,25.043v20.067
				c0,16.344,13.297,29.642,29.641,29.642h21.557c16.344,0,29.641-13.298,29.641-29.642v-20.068
				c15.884-5.355,30.668-13.905,43.309-25.043L322.202,274.833z M298.043,249.007c-13.14,12.769-29.338,22.133-46.843,27.085
				c-3.482,0.984-5.884,4.162-5.884,7.779v26.024c0,7.43-6.045,13.474-13.474,13.474h-21.557c-7.43,0-13.474-6.044-13.474-13.474
				v-26.026c0-3.618-2.404-6.795-5.884-7.779c-17.505-4.952-33.704-14.317-46.843-27.085c-1.549-1.505-3.582-2.286-5.636-2.286
				c-1.384,0-2.778,0.355-4.039,1.083l-22.569,13.031c-3.116,1.8-6.748,2.28-10.224,1.346c-3.476-0.931-6.382-3.16-8.181-6.278
				l-10.778-18.669c-3.714-6.434-1.503-14.691,4.931-18.405l22.541-13.015c3.129-1.807,4.68-5.47,3.797-8.975
				c-2.219-8.813-3.345-17.922-3.345-27.07s1.125-18.256,3.345-27.07c0.883-3.504-0.668-7.168-3.797-8.975l-22.541-13.014
				c-6.435-3.714-8.647-11.971-4.932-18.405l10.779-18.669c1.799-3.116,4.705-5.346,8.181-6.278
				c3.475-0.932,7.108-0.454,10.224,1.346l22.569,13.031c3.132,1.81,7.082,1.317,9.675-1.203
				c13.14-12.769,29.338-22.133,46.843-27.085c3.482-0.984,5.884-4.162,5.884-7.779V29.642c0-7.43,6.045-13.474,13.474-13.474
				h21.557c7.43,0,13.474,6.044,13.474,13.474v26.024c0,3.619,2.404,6.795,5.884,7.779c17.505,4.952,33.704,14.317,46.843,27.085
				c2.592,2.52,6.543,3.013,9.675,1.203l22.568-13.029c3.116-1.799,6.748-2.278,10.224-1.346c3.476,0.931,6.382,3.16,8.181,6.278
				l10.779,18.669c1.799,3.116,2.278,6.748,1.346,10.224c-0.931,3.476-3.16,6.381-6.278,8.181l-22.542,13.014
				c-3.129,1.807-4.68,5.47-3.797,8.975c2.218,8.813,3.344,17.92,3.344,27.07c0,9.15-1.124,18.257-3.344,27.07
				c-0.883,3.504,0.668,7.168,3.797,8.975l22.542,13.015c3.116,1.8,5.346,4.705,6.278,8.181c0.931,3.475,0.453,7.107-1.346,10.224
				l-10.779,18.669c-1.799,3.116-4.704,5.346-8.18,6.278c-3.475,0.933-7.107,0.454-10.224-1.346l-22.569-13.031
				C304.586,245.995,300.636,246.488,298.043,249.007z"/>
			<path d="M261.483,158.989c0-4.466-3.62-8.084-8.084-8.084h-64.672c-4.465,0-8.084,3.618-8.084,8.084
				c0,4.466,3.62,8.084,8.084,8.084h64.672C257.863,167.074,261.483,163.455,261.483,158.989z"/>
			<path d="M424.561,370.496c-4.054,1.87-5.825,6.672-3.955,10.727c1.992,4.319,3.002,8.944,3.002,13.749
				c0,18.127-14.748,32.876-32.875,32.876s-32.875-14.749-32.875-32.876s14.748-32.876,32.875-32.876
				c4.461,0,8.782,0.874,12.841,2.6c4.111,1.748,8.856-0.168,10.602-4.278c1.746-4.11-0.169-8.856-4.278-10.602
				c-6.07-2.579-12.519-3.888-19.165-3.888c-27.042,0-49.043,22.001-49.043,49.044s22.001,49.044,49.043,49.044
				c27.042,0,49.043-22.001,49.043-49.044c0-7.159-1.51-14.063-4.488-20.521C433.418,370.398,428.617,368.627,424.561,370.496z"/>
			<path d="M489.654,416.268l-10.363-5.839c0.926-5.096,1.394-10.272,1.394-15.457c0-5.186-0.468-10.362-1.394-15.457l10.363-5.84
				c5.382-3.031,9.218-7.952,10.799-13.855c1.564-5.839,0.725-11.928-2.362-17.147l-7.442-12.578
				c-6.325-10.693-20.347-14.391-31.259-8.244l-10.584,5.963c-8.194-6.777-17.596-12.09-27.662-15.633v-11.627
				c0-12.468-10.304-22.611-22.969-22.611h-14.885c-12.665,0-22.969,10.144-22.969,22.611v11.627
				c-10.065,3.543-19.467,8.856-27.662,15.633l-10.584-5.963c-10.913-6.149-24.934-2.451-31.258,8.243l-7.443,12.58
				c-3.086,5.218-3.925,11.307-2.361,17.146c1.581,5.903,5.416,10.823,10.798,13.855l10.364,5.84
				c-0.926,5.095-1.394,10.271-1.394,15.457c0,5.185,0.468,10.361,1.394,15.457l-10.364,5.839
				c-5.383,3.032-9.218,7.954-10.799,13.858c-1.564,5.838-0.724,11.926,2.362,17.144l7.443,12.579
				c6.326,10.692,20.35,14.393,31.259,8.244l10.584-5.963c8.194,6.777,17.594,12.089,27.662,15.633v11.626
				c0,12.468,10.304,22.611,22.969,22.611h14.885c12.665,0,22.969-10.144,22.969-22.611v-11.626
				c10.068-3.544,19.467-8.856,27.662-15.633l10.584,5.963c10.913,6.148,24.933,2.449,31.258-8.243l7.442-12.58
				c3.086-5.218,3.926-11.306,2.362-17.144C498.872,424.222,495.037,419.3,489.654,416.268z M484.175,439.037l-7.443,12.581
				c-1.881,3.179-6.101,4.252-9.407,2.39l-15.596-8.787c-3.09-1.743-6.957-1.263-9.531,1.177
				c-8.762,8.307-19.582,14.408-31.292,17.642c-3.504,0.968-5.932,4.156-5.932,7.792v17.558c0,3.553-3.05,6.443-6.8,6.443h-14.885
				c-3.75,0-6.8-2.89-6.8-6.443v-17.558c0-3.636-2.427-6.824-5.932-7.792c-11.71-3.234-22.53-9.335-31.292-17.642
				c-1.54-1.462-3.542-2.218-5.564-2.218c-1.358,0-2.725,0.342-3.967,1.041l-15.595,8.787c-3.306,1.862-7.525,0.791-9.407-2.391
				l-7.443-12.58c-0.855-1.444-1.088-3.124-0.659-4.728c0.447-1.67,1.554-3.075,3.117-3.956l15.569-8.772
				c3.191-1.798,4.775-5.516,3.86-9.062c-1.478-5.728-2.227-11.633-2.227-17.548c0-5.917,0.749-11.82,2.227-17.547
				c0.915-3.546-0.668-7.265-3.859-9.063l-15.569-8.773c-1.563-0.881-2.67-2.285-3.117-3.955c-0.43-1.605-0.196-3.284,0.659-4.729
				l7.443-12.58c1.882-3.18,6.101-4.253,9.407-2.39l15.596,8.787c3.09,1.742,6.957,1.263,9.531-1.177
				c8.762-8.308,19.583-14.409,31.291-17.642c3.505-0.967,5.933-4.156,5.933-7.792v-17.559c0-3.553,3.05-6.443,6.8-6.443h14.885
				c3.75,0,6.8,2.89,6.8,6.443v17.559c0,3.636,2.427,6.825,5.933,7.792c11.708,3.233,22.528,9.333,31.291,17.642
				c2.575,2.443,6.44,2.919,9.531,1.177l15.596-8.787c3.307-1.862,7.525-0.79,9.407,2.391l7.442,12.578
				c0.856,1.445,1.09,3.126,0.66,4.73c-0.447,1.67-1.554,3.074-3.118,3.955l-15.569,8.773c-3.191,1.798-4.774,5.517-3.859,9.063
				c1.478,5.726,2.227,11.63,2.227,17.547c0,5.916-0.749,11.82-2.227,17.548c-0.915,3.546,0.669,7.264,3.86,9.062l15.569,8.772
				c1.563,0.881,2.67,2.286,3.117,3.956C485.264,435.914,485.032,437.593,484.175,439.037z"/>
			<path d="M210.284,183.242c-4.465,0-8.084,3.618-8.084,8.084c0,4.466,3.62,8.084,8.084,8.084h21.557
				c4.465,0,8.084-3.618,8.084-8.084c0-4.466-3.62-8.084-8.084-8.084H210.284z"/>
		</g>
	</g>
</g>
</svg>